<svg width="32" height="32" viewBox="0 0 32 32" fill="none" xmlns="http://www.w3.org/2000/svg">
<path d="M27.8135 11.16L18.5735 3.7733C17.1469 2.62663 14.8402 2.62663 13.4269 3.75996L4.18686 11.16C3.14686 11.9866 2.48019 13.7333 2.70686 15.04L4.48019 25.6533C4.80019 27.5466 6.61352 29.08 8.53352 29.08H23.4669C25.3735 29.08 27.2002 27.5333 27.5202 25.6533L29.2935 15.04C29.5069 13.7333 28.8402 11.9866 27.8135 11.16ZM16.0002 20.6666C14.1602 20.6666 12.6669 19.1733 12.6669 17.3333C12.6669 15.4933 14.1602 14 16.0002 14C17.8402 14 19.3335 15.4933 19.3335 17.3333C19.3335 19.1733 17.8402 20.6666 16.0002 20.6666Z" fill="white"/>
</svg>
