<svg width="32" height="32" viewBox="0 0 32 32" fill="none" xmlns="http://www.w3.org/2000/svg">
<path d="M16 18.6666C9.32 18.6666 3.88 23.1466 3.88 28.6666C3.88 29.04 4.17334 29.3333 4.54667 29.3333H27.4533C27.8267 29.3333 28.12 29.04 28.12 28.6666C28.12 23.1466 22.68 18.6666 16 18.6666Z" fill="white"/>
<path d="M22.2934 13.8L21.0134 12.52C21.68 11.52 22.0667 10.32 22.0667 9.02663C22.0667 5.50663 19.2134 2.66663 15.7067 2.66663C12.2 2.66663 9.33337 5.51996 9.33337 9.02663C9.33337 12.5333 12.1867 15.3866 15.6934 15.3866C16.9867 15.3866 18.1867 15 19.1867 14.3333L20.4667 15.6133C20.72 15.8666 21.0534 15.9866 21.3734 15.9866C21.7067 15.9866 22.04 15.8666 22.28 15.6133C22.7867 15.12 22.7867 14.3066 22.2934 13.8Z" fill="white"/>
</svg>
