<svg width="32" height="32" viewBox="0 0 32 32" fill="none" xmlns="http://www.w3.org/2000/svg">
<path d="M16.0002 17C11.7735 17 8.3335 13.56 8.3335 9.33329C8.3335 5.10663 11.7735 1.66663 16.0002 1.66663C20.2268 1.66663 23.6668 5.10663 23.6668 9.33329C23.6668 13.56 20.2268 17 16.0002 17ZM16.0002 3.66663C12.8802 3.66663 10.3335 6.21329 10.3335 9.33329C10.3335 12.4533 12.8802 15 16.0002 15C19.1202 15 21.6668 12.4533 21.6668 9.33329C21.6668 6.21329 19.1202 3.66663 16.0002 3.66663Z" fill="white"/>
<path d="M4.54688 30.3333C4.00021 30.3333 3.54688 29.88 3.54688 29.3333C3.54688 23.64 9.13358 19 16.0002 19C16.5469 19 17.0002 19.4533 17.0002 20C17.0002 20.5467 16.5469 21 16.0002 21C10.2402 21 5.54688 24.7333 5.54688 29.3333C5.54688 29.88 5.09354 30.3333 4.54688 30.3333Z" fill="white"/>
<path d="M24.2667 28.7834C21.7742 28.7834 19.75 26.7591 19.75 24.2667C19.75 21.7742 21.7742 19.75 24.2667 19.75C26.7591 19.75 28.7834 21.7742 28.7834 24.2667C28.7834 26.7591 26.7591 28.7834 24.2667 28.7834ZM24.2667 20.25C22.0525 20.25 20.25 22.0525 20.25 24.2667C20.25 26.4809 22.0525 28.2834 24.2667 28.2834C26.4809 28.2834 28.2834 26.4809 28.2834 24.2667C28.2834 22.0525 26.4809 20.25 24.2667 20.25Z" fill="white" stroke="white" stroke-width="1.5"/>
<path d="M29.3335 30.3333C29.0801 30.3333 28.8268 30.24 28.6268 30.04L27.2934 28.7067C26.9068 28.32 26.9068 27.68 27.2934 27.2933C27.6801 26.9066 28.3202 26.9066 28.7068 27.2933L30.0402 28.6266C30.4268 29.0133 30.4268 29.6534 30.0402 30.04C29.8402 30.24 29.5868 30.3333 29.3335 30.3333Z" fill="white"/>
</svg>
